<svg xmlns="http://www.w3.org/2000/svg" viewBox="7929.75 -1145.5 73.178 953.754"><defs><style>.a{opacity:0.5;}.b{fill:#fff;}</style></defs><g class="a" transform="translate(8002.928 -1145.5) rotate(90)"><g transform="translate(0 2.005)"><path class="b" d="M42.48,39.736a23.767,23.767,0,0,0-6.8-3.437,36.83,36.83,0,0,0-8.156-1.718l-1.359-.143,1.359-.286a29.805,29.805,0,0,0,13.254-6.158,13.855,13.855,0,0,0,5.267-10.74,11.765,11.765,0,0,0-1.869-6.444,15.36,15.36,0,0,0-5.1-5.012A25.255,25.255,0,0,0,31.1,2.646,46.591,46.591,0,0,0,20.56,1.5H0V70.382H19.541A51.675,51.675,0,0,0,31.6,68.95a32.644,32.644,0,0,0,9.346-4.01A19.308,19.308,0,0,0,46.9,58.926a14.279,14.279,0,0,0,2.209-7.3,12.148,12.148,0,0,0-1.7-6.587A17.9,17.9,0,0,0,42.48,39.736ZM4.588,4.937H20.73a36.04,36.04,0,0,1,8.156.859,27.356,27.356,0,0,1,6.457,2.435,13.84,13.84,0,0,1,4.418,4.153,9.772,9.772,0,0,1,1.529,5.3,11.641,11.641,0,0,1-1.869,6.3,14.656,14.656,0,0,1-5.1,4.726,27.924,27.924,0,0,1-7.816,3.007,42.344,42.344,0,0,1-9.685,1.146H4.588Zm37.722,52.7a16.1,16.1,0,0,1-4.928,4.869,23.264,23.264,0,0,1-7.646,3.151A41.228,41.228,0,0,1,20.05,66.8H4.758V36.442H18.181a55.829,55.829,0,0,1,9.855.859,33.935,33.935,0,0,1,8.326,2.721,16.916,16.916,0,0,1,5.777,4.583,11.214,11.214,0,0,1,2.209,6.587A15.664,15.664,0,0,1,42.31,57.637Z" transform="translate(0 -1.357)"/><path class="b" d="M54.728,36.729H90.071v-3.58H54.728V4.937H91.6V1.5H49.8V70.239H91.94V66.8H54.728Z" transform="translate(34.82 -1.357)"/><path class="b" d="M125.185,1.5,92.9,70.239h4.928L127.054,6.512l.17.43,29.056,63.3h4.758L128.753,1.5Z" transform="translate(64.955 -1.357)"/><path class="b" d="M164.618,70.239h4.928V4.937h25.488V1.5H139.3V4.937h25.318Z" transform="translate(97.397 -1.357)"/><path class="b" d="M215.038,38.92c6.457-1.432,11.724-3.723,15.633-7.017a15.253,15.253,0,0,0,5.777-12.316,14.275,14.275,0,0,0-2.379-8.02,16.713,16.713,0,0,0-6.287-5.585,29.812,29.812,0,0,0-9.006-3.437A51.4,51.4,0,0,0,208.241,1.4H190.4V70.282h4.928V4.98H207.9a43.185,43.185,0,0,1,8.666.859,25.538,25.538,0,0,1,7.476,2.578A15.592,15.592,0,0,1,229.481,13a11.341,11.341,0,0,1,2.039,6.874,11.786,11.786,0,0,1-2.209,7.16,17.92,17.92,0,0,1-6.117,5.155,31.842,31.842,0,0,1-9.006,3.151,42.222,42.222,0,0,1-7.646,1l3.228,3.437,29.056,30.36H244.6L214.528,38.777Z" transform="translate(133.125 -1.4)"/><rect class="b" width="4.928" height="68.882" transform="translate(415.961 0.143)"/><path class="b" d="M278.1,66.516,323.806,5.08V1.5H274.359V4.937h44.519L273,66.659v3.58h51.485V66.8H277.928Z" transform="translate(190.878 -1.357)"/></g><g transform="translate(544.08)"><path class="b" d="M336.852,13.748a33.4,33.4,0,0,1,11.215-6.3A47.783,47.783,0,0,1,362.85,5.3a70.713,70.713,0,0,1,9.515.573,62.269,62.269,0,0,1,9.006,2l.85.286,1.359-5.012-.51-.286A51.746,51.746,0,0,0,373.555.573C369.646.286,366.078,0,362.34,0a51.665,51.665,0,0,0-17.672,2.721,37.594,37.594,0,0,0-13.254,7.59,35.931,35.931,0,0,0-8.326,11.6A37.3,37.3,0,0,0,320.2,36.518a38.017,38.017,0,0,0,2.889,14.75,31.489,31.489,0,0,0,8.326,11.6,39.917,39.917,0,0,0,13.254,7.59,51.666,51.666,0,0,0,17.672,2.721,92.431,92.431,0,0,0,10.875-.716,42.271,42.271,0,0,0,9.515-2.291l.51-.286-1.359-5.012-.85.286a47.714,47.714,0,0,1-9.006,2,69.065,69.065,0,0,1-9.516.573,47.022,47.022,0,0,1-14.783-2.148,31.127,31.127,0,0,1-11.215-6.3,26.5,26.5,0,0,1-6.967-9.738,34.988,34.988,0,0,1-2.379-13.032,35.541,35.541,0,0,1,2.379-13.032A30.447,30.447,0,0,1,336.852,13.748Z" transform="translate(-320.2)"/><path class="b" d="M443.277,11.027a38.349,38.349,0,0,0-12.4-8.02,47.606,47.606,0,0,0-33.3,0,38.35,38.35,0,0,0-12.4,8.02,36.012,36.012,0,0,0-7.816,11.6A38.145,38.145,0,0,0,374.8,36.374a37.584,37.584,0,0,0,2.549,13.748,32.208,32.208,0,0,0,7.816,11.6,38.349,38.349,0,0,0,12.4,8.02,47.606,47.606,0,0,0,33.3,0,38.349,38.349,0,0,0,12.4-8.02,36.01,36.01,0,0,0,7.816-11.6,38.145,38.145,0,0,0,2.549-13.748,37.584,37.584,0,0,0-2.549-13.748A40.869,40.869,0,0,0,443.277,11.027Zm3.228,25.491A32.554,32.554,0,0,1,444.3,48.69a30.364,30.364,0,0,1-6.457,9.881,29.057,29.057,0,0,1-10.2,6.731,33.43,33.43,0,0,1-13.424,2.435A36.091,36.091,0,0,1,400.8,65.3,29.606,29.606,0,0,1,384.146,48.69a32.039,32.039,0,0,1-2.209-12.173,32.554,32.554,0,0,1,2.209-12.173,30.364,30.364,0,0,1,6.457-9.881,29.057,29.057,0,0,1,10.2-6.731A33.43,33.43,0,0,1,414.221,5.3a36.091,36.091,0,0,1,13.424,2.435,29.47,29.47,0,0,1,10.2,6.731,31.96,31.96,0,0,1,6.457,9.881A32.554,32.554,0,0,1,446.506,36.518Z" transform="translate(-282.024)"/><path class="b" d="M429.8,6.055h25.488V71.5h6.967V6.055h25.318V.9H429.8Z" transform="translate(-243.569 0.389)"/><path class="b" d="M501.934.9,468.8,71.5h7.137L504.313,9.206l28.376,61.865.17.43H540L506.862.9Z" transform="translate(-216.301 0.389)"/><path class="b" d="M557.462.9h-4.928L519.4,71.5h7.137L554.913,9.206l28.376,61.865.17.43H590.6Z" transform="translate(-180.922 0.389)"/></g></g></svg>