<svg xmlns="http://www.w3.org/2000/svg" viewBox="461 436 999 76.65"><defs><style>.a{fill:#fff;}</style></defs><g transform="translate(461 436)"><g transform="translate(0 2.1)"><path class="a" d="M44.495,41.55a24.9,24.9,0,0,0-7.119-3.6,38.577,38.577,0,0,0-8.543-1.8L27.409,36l1.424-.3a31.219,31.219,0,0,0,13.882-6.45A14.512,14.512,0,0,0,48.232,18a12.323,12.323,0,0,0-1.958-6.75A16.089,16.089,0,0,0,40.935,6,26.454,26.454,0,0,0,32.57,2.7,48.8,48.8,0,0,0,21.536,1.5H0V73.65H20.468A54.126,54.126,0,0,0,33.1,72.15a34.193,34.193,0,0,0,9.789-4.2,20.224,20.224,0,0,0,6.229-6.3A14.957,14.957,0,0,0,51.436,54a12.725,12.725,0,0,0-1.78-6.9A18.745,18.745,0,0,0,44.495,41.55ZM4.805,5.1H21.714a37.75,37.75,0,0,1,8.543.9A28.654,28.654,0,0,1,37.02,8.55a14.5,14.5,0,0,1,4.627,4.35,10.236,10.236,0,0,1,1.6,5.55,12.193,12.193,0,0,1-1.958,6.6A15.351,15.351,0,0,1,35.952,30a29.248,29.248,0,0,1-8.187,3.15,44.353,44.353,0,0,1-10.145,1.2H4.805ZM44.317,60.3a16.868,16.868,0,0,1-5.161,5.1,24.367,24.367,0,0,1-8.009,3.3A43.183,43.183,0,0,1,21,69.9H4.983V38.1h14.06a58.477,58.477,0,0,1,10.323.9,35.545,35.545,0,0,1,8.721,2.85,17.719,17.719,0,0,1,6.051,4.8,11.746,11.746,0,0,1,2.314,6.9A16.407,16.407,0,0,1,44.317,60.3Z" transform="translate(0 -1.35)"/><path class="a" d="M54.961,38.4h37.02V34.65H54.961V5.1H93.583V1.5H49.8v72H93.939V69.9H54.961Z" transform="translate(38.834 -1.35)"/><path class="a" d="M126.716,1.5,92.9,73.5h5.161L128.674,6.75l.178.45,30.435,66.3h4.983l-33.816-72Z" transform="translate(72.443 -1.35)"/><path class="a" d="M165.819,73.5h5.161V5.1h26.7V1.5H139.3V5.1h26.519Z" transform="translate(108.626 -1.35)"/><path class="a" d="M216.207,40.7c6.763-1.5,12.281-3.9,16.374-7.35a15.976,15.976,0,0,0,6.051-12.9,14.952,14.952,0,0,0-2.492-8.4,17.506,17.506,0,0,0-6.585-5.85,31.227,31.227,0,0,0-9.433-3.6,53.836,53.836,0,0,0-11.035-1.2H190.4V73.55h5.161V5.15h13.17a45.233,45.233,0,0,1,9.077.9,26.75,26.75,0,0,1,7.831,2.7,16.331,16.331,0,0,1,5.7,4.8,11.879,11.879,0,0,1,2.136,7.2,12.345,12.345,0,0,1-2.314,7.5,18.771,18.771,0,0,1-6.407,5.4,33.353,33.353,0,0,1-9.433,3.3A44.225,44.225,0,0,1,207.308,38l3.382,3.6,30.435,31.8h6.051l-31.5-32.85Z" transform="translate(148.473 -1.4)"/><rect class="a" width="5.161" height="72.15" transform="translate(435.694 0.15)"/><path class="a" d="M278.339,69.6,326.216,5.25V1.5H274.424V5.1h46.631L273,69.75V73.5h53.928V69.9H278.161Z" transform="translate(212.885 -1.35)"/></g><g transform="translate(569.891)"><path class="a" d="M337.642,14.4a34.988,34.988,0,0,1,11.747-6.6,50.05,50.05,0,0,1,15.484-2.25,74.068,74.068,0,0,1,9.967.6,65.221,65.221,0,0,1,9.433,2.1l.89.3,1.424-5.25-.534-.3A54.2,54.2,0,0,0,376.086.6c-4.094-.3-7.831-.6-11.747-.6a54.117,54.117,0,0,0-18.51,2.85,39.378,39.378,0,0,0-13.882,7.95,37.635,37.635,0,0,0-8.721,12.15,39.069,39.069,0,0,0-3.026,15.3,39.82,39.82,0,0,0,3.026,15.45,32.983,32.983,0,0,0,8.721,12.15,41.811,41.811,0,0,0,13.882,7.95,54.117,54.117,0,0,0,18.51,2.85,96.817,96.817,0,0,0,11.391-.75,44.277,44.277,0,0,0,9.967-2.4l.534-.3-1.424-5.25-.89.3a49.977,49.977,0,0,1-9.433,2.1,72.342,72.342,0,0,1-9.967.6,49.253,49.253,0,0,1-15.484-2.25,32.6,32.6,0,0,1-11.747-6.6,27.755,27.755,0,0,1-7.3-10.2A36.648,36.648,0,0,1,327.5,38.25a37.227,37.227,0,0,1,2.492-13.65A31.891,31.891,0,0,1,337.642,14.4Z" transform="translate(-320.2)"/><path class="a" d="M446.526,11.55a40.168,40.168,0,0,0-12.992-8.4,49.865,49.865,0,0,0-34.884,0,40.169,40.169,0,0,0-12.992,8.4A37.72,37.72,0,0,0,377.47,23.7a39.955,39.955,0,0,0-2.67,14.4,39.367,39.367,0,0,0,2.67,14.4,33.735,33.735,0,0,0,8.187,12.15,40.169,40.169,0,0,0,12.992,8.4,49.864,49.864,0,0,0,34.884,0,40.168,40.168,0,0,0,12.992-8.4,37.719,37.719,0,0,0,8.187-12.15,39.955,39.955,0,0,0,2.67-14.4,39.367,39.367,0,0,0-2.67-14.4A42.808,42.808,0,0,0,446.526,11.55Zm3.382,26.7A34.1,34.1,0,0,1,447.594,51a31.8,31.8,0,0,1-6.763,10.35,30.436,30.436,0,0,1-10.679,7.05,35.016,35.016,0,0,1-14.06,2.55,37.8,37.8,0,0,1-14.06-2.55A31.011,31.011,0,0,1,384.589,51a33.559,33.559,0,0,1-2.314-12.75,34.1,34.1,0,0,1,2.314-12.75,31.8,31.8,0,0,1,6.763-10.35A30.435,30.435,0,0,1,402.031,8.1a35.016,35.016,0,0,1,14.06-2.55,37.8,37.8,0,0,1,14.06,2.55,30.868,30.868,0,0,1,10.679,7.05,33.476,33.476,0,0,1,6.763,10.35A34.1,34.1,0,0,1,449.907,38.25Z" transform="translate(-277.623)"/><path class="a" d="M429.8,6.3h26.7V74.85h7.3V6.3h26.519V.9H429.8Z" transform="translate(-234.734 0.45)"/><path class="a" d="M503.506.9,468.8,74.85h7.475L506,9.6,535.72,74.4l.178.45h7.475L508.668.9Z" transform="translate(-204.322 0.45)"/><path class="a" d="M559.268.9h-5.161L519.4,74.85h7.475L556.6,9.6,586.32,74.4l.178.45h7.475Z" transform="translate(-164.864 0.45)"/></g></g></svg>